<svg xmlns="http://www.w3.org/2000/svg" viewBox="0 0 48 48" width="48" height="48">
  <path fill="#d33833" d="M24 4C12.95 4 4 12.95 4 24s8.95 20 20 20 20-8.95 20-20S35.05 4 24 4z"/>
  <ellipse cx="24" cy="16" rx="8" ry="8" fill="#f0d6b7"/>
  <path fill="#d33833" d="M24 18c-1.1 0-2-.9-2-2s.9-2 2-2 2 .9 2 2-.9 2-2 2z"/>
  <path fill="#fff" d="M24 26c-6 0-12 3-12 8v6h24v-6c0-5-6-8-12-8z"/>
  <path fill="#335061" d="M20 32h8v8h-8z"/>
  <path fill="#6d6b6d" d="M18 14c0-3.3 2.7-6 6-6s6 2.7 6 6"/>
</svg>
